# xmcd
#
# Track frame offsets:
#	150
#	11455
#	22136
#	33480
#	44236
#	54229
#	62894
#	73536
#	84438
#	93566
#	103946
#	117281
#	130134
#	142689
#	153938
#	164070
#	177209
#	187036
#	197518
#	209355
#	222237
#	233529
#	250482
#	261851
#	275067
#	284618
#	295848
#	305491
#	316917
#	327248
#
# Disc length: 4500 seconds
#
# Revision: 1
# Processed by: cddbd v1.5.2PL0 Copyright (c) Steve Scherf et al.
# Submitted via: audiograbber 1.83.01
#
DISCID=c811921e
DTITLE=Tommy Cash - The American Way Of Life
DYEAR=1971
DGENRE=Country
TTITLE0=One Song Away
TTITLE1=Rise And Shine
TTITLE2=The Tears On Lincoln's Face
TTITLE3=Silver Wings
TTITLE4=Irma Jackson
TTITLE5=The Honest Truth
TTITLE6=A free Mann
TTITLE7=Memory Town
TTITLE8=Do Wath You Do Do Well
TTITLE9=Carried Away
TTITLE10=The Fightin' Side Of Me
TTITLE11=Six White Horses
TTITLE12=I'm So Afraid Of Losing You Again
TTITLE13=The Long Black Veil
TTITLE14=The Ramblin' kind
TTITLE15=Green, Green Grass Of Home
TTITLE16=Rise And Shine
TTITLE17=Okie From Muskogee
TTITLE18=I Owe The World To You
TTITLE19=Don't Hold You Breath
TTITLE20=Top Of The Town
TTITLE21=So, You're Tired Of America
TTITLE22=The Farmer (Who'll Remember Him)
TTITLE23=Roll Truck Roll
TTITLE24=The Machine
TTITLE25=This Song Belongs To You
TTITLE26=The Mailman
TTITLE27=I Got Me A Guitar
TTITLE28=She's Not As Bad As All That
TTITLE29=Aberscrombie, Morganstern and Hall
EXTD=
EXTT0=
EXTT1=
EXTT2=
EXTT3=
EXTT4=
EXTT5=
EXTT6=
EXTT7=
EXTT8=
EXTT9=
EXTT10=
EXTT11=
EXTT12=
EXTT13=
EXTT14=
EXTT15=
EXTT16=
EXTT17=
EXTT18=
EXTT19=
EXTT20=
EXTT21=
EXTT22=
EXTT23=
EXTT24=
EXTT25=
EXTT26=
EXTT27=
EXTT28=
EXTT29=
PLAYORDER=
